<svg xmlns="http://www.w3.org/2000/svg" viewBox="0 0 135.467 135.467" height="512" width="512">
  <path d="M117.55 62.332l3.259-.35 3.512.478 6.928 3.007V70l-6.928 3.008-3.512.478-3.258-.35-1.435 7.675 3.165.85 3.102 1.715 5.373 5.307-1.637 4.226-7.546.302-3.448-.823-2.911-1.504-4.111 6.639 2.644 1.936 2.273 2.72 3.094 6.89-3.053 3.349-7.146-2.445-2.918-2.012-2.172-2.455-6.231 4.706 1.767 2.76 1.137 3.357.395 7.543-4.056 2.02-5.78-4.861-1.995-2.93-1.138-3.074-7.51 2.137.65 3.212-.153 3.541-2.355 7.176-4.513.418-3.634-6.62-.8-3.454.048-3.277-7.775-.72-.554 3.23-1.421 3.247-4.79 5.84-4.358-1.24-.997-7.486.5-3.51 1.23-3.037-6.99-3.48-1.683 2.811-2.499 2.514-6.575 3.716-3.616-2.73 1.774-7.342 1.735-3.09 2.244-2.39-5.261-5.77-2.586 2.013-3.237 1.442-7.474 1.09-2.386-3.853 4.307-6.204 2.734-2.256 2.955-1.417-2.82-7.281-3.139.944-3.54.175-7.363-1.684-.832-4.454 6.257-4.23 3.364-1.116 3.268-.253v-7.809l-3.268-.254-3.364-1.115-6.257-4.23.832-4.454 7.363-1.684 3.54.175 3.139.944 2.82-7.282-2.955-1.417-2.734-2.255-4.307-6.205 2.386-3.853 7.474 1.09 3.237 1.442 2.586 2.014 5.26-5.77-2.243-2.39-1.735-3.09-1.774-7.342 3.616-2.73 6.575 3.715 2.499 2.515 1.683 2.812 6.99-3.481-1.23-3.038-.5-3.509.997-7.486 4.359-1.24 4.789 5.84 1.42 3.247.555 3.23 7.775-.72-.049-3.278.8-3.453 3.635-6.62 4.513.418 2.355 7.176.153 3.54-.65 3.213 7.51 2.137 1.138-3.073 1.994-2.931 5.78-4.86 4.057 2.02-.395 7.541-1.137 3.357-1.767 2.76 6.231 4.707 2.172-2.455 2.918-2.012 7.146-2.445 3.053 3.35-3.094 6.89-2.273 2.719-2.644 1.936 4.11 6.639 2.912-1.505 3.448-.822 7.546.302 1.637 4.226-5.373 5.307-3.102 1.715-3.165.85z" fill="none" stroke-width="4.000059149999999" stroke="#045" stroke-opacity="1" />
  <g stroke-width=".226">
    <path d="M55.046 63.741q.75-.917 1.656-1.281.906-.375 2.23-.375 1.315 0 1.823.828.52.817.52 2.44v.067H59.55q0-.11-.01-.354-.012-.254-.023-.353 0-.1-.033-.276-.022-.188-.088-.254-.056-.077-.155-.166-.1-.1-.254-.132-.155-.033-.364-.033-.475 0-.895.11-.42.11-.916.398-.486.276-.95.872-.464.596-.862 1.48v6.692l-1.722-.01v-8.427q0-.1-.011-.188-.012-.1-.056-.188-.044-.099-.077-.165-.022-.078-.11-.166l-.122-.154q-.033-.056-.155-.166-.121-.11-.176-.155-.055-.055-.21-.187-.144-.133-.21-.188l1.149-1.557q.077.066.32.265.254.187.353.265.1.077.287.265.2.176.31.32.11.133.243.342.132.21.232.431zM69.888 71.03q.983-.928.983-3.479v-.199q-.022-1.656-.663-2.65-.64-.994-2.02-.994-.84 0-1.436.32-.586.32-.917.939-.331.618-.486 1.413-.143.785-.143 1.845 0 1.634.717 2.55.718.906 2.088.906.63-.01 1.038-.154.42-.144.84-.497zm-1.9 2.363q-2.208-.01-3.368-1.37-1.16-1.369-1.16-3.743 0-1.005.133-1.888.144-.895.464-1.701.331-.817.817-1.403.497-.585 1.248-.927.751-.354 1.69-.354 1.59 0 2.573.552.994.542 1.59 1.668.652 1.259.652 3.18 0 .994-.144 1.845-.132.84-.464 1.623-.33.773-.85 1.325-.508.542-1.314.873-.806.32-1.844.32zM77.331 67.12q-1.28-.684-1.28-2.363.01-1.347 1.082-2.032 1.07-.685 2.65-.685 1.16 0 2.363.398 1.204.386 1.834 1.16l-1.248 1.225q-.431-.497-1.248-.817-.806-.331-1.546-.331-.939 0-1.546.265-.608.265-.608.773 0 .386.155.607.165.221.508.376.475.199 1.104.43l1.071.376q.453.155.972.375.53.21.884.42.364.199.729.497.364.298.574.64.22.343.353.818.133.475.133 1.049 0 1.248-.718 2.043-.718.795-1.723 1.06-.95.221-1.91.221-2.077 0-3.159-1.016-1.082-1.027-1.082-2.85l1.734.012q0 2.275 2.474 2.275 1.104 0 1.888-.464.784-.475.784-1.336 0-.486-.22-.784-.222-.31-.73-.696-.452-.331-2.109-.85-1.646-.52-2.165-.796z" fill="#37abc8" fill-opacity="1" stroke-opacity="0" />
    <path d="M87.768 61.83q.54.575.795 1.039.265.463.508 1.16l.784 2.086q.75 2 1.226 3.413.475 1.413.53 1.921 1.06-1.225 1.91-3.313.85-2.087.895-3.754.01-.31.01-1.072 0-.872-.021-1.07l1.678-.045q.056.298.056 2.142-.011 1.933-1.005 4.307-.994 2.375-2.275 3.976-.431.53-1.05.674-.607.143-1.678.143 0-1.005-1.05-4.152-1.048-3.147-1.855-5.146-.066-.177-.375-.608-.298-.442-.508-.64zM106.232 62.073q.564 0 .961.343.398.331.586.872.187.53.254 1.005.077.475.077.95v5.776q0 .386.31.696.308.298.706.452l-.674 1.47q-.32-.067-.63-.222-.309-.154-.607-.42-.287-.264-.475-.706-.176-.442-.176-.994v-6.427q0-1.105-.707-1.105-.872 0-1.79 1.999v7.642h-1.556v-8.9q0-.21-.022-.343-.022-.133-.155-.265-.121-.133-.353-.133-.453 0-.983.486-.52.486-.994 1.524v7.631h-1.557l-.033-9q0-1.17-.332-2.12l1.657-.442q.121.243.22.85.1.607.122 1.027.398-.685 1.038-1.16.652-.486 1.237-.486.762 0 1.226.508.475.508.475 1.138.894-1.646 2.175-1.646z" fill="#164450" fill-opacity="1" stroke-opacity="0" />
  </g>
  <g>
    <path d="M76.46 80.897h9.666q-1.107 10.422-7.853 17.37-6.747 6.947-19.937 6.947-12.788 0-20.641-9.113-7.804-9.162-7.955-24.316V63.93q0-15.406 7.904-24.72 7.955-9.313 21.548-9.313 12.435 0 19.13 6.847 6.697 6.847 7.804 17.67H76.46q-1.107-7.652-4.934-12.082-3.826-4.48-12.334-4.48-9.717 0-14.751 7.148-5.035 7.15-5.035 18.83v7.4q0 10.824 4.582 18.477 4.581 7.602 14.348 7.602 9.263 0 13.04-4.33 3.826-4.33 5.084-12.083z" fill="#37abc8" fill-opacity="1" stroke-width="2.578" stroke-opacity="0" />
  </g>
</svg>
